<?xml version="1.0" encoding="UTF-8" standalone="no"?><!DOCTYPE svg PUBLIC "-//W3C//DTD SVG 1.1//EN" "http://www.w3.org/Graphics/SVG/1.1/DTD/svg11.dtd"><svg width="100%" height="100%" viewBox="0 0 226 46" version="1.1" xmlns="http://www.w3.org/2000/svg" xmlns:xlink="http://www.w3.org/1999/xlink" xml:space="preserve" xmlns:serif="http://www.serif.com/" style="fill-rule:evenodd;clip-rule:evenodd;stroke-linejoin:round;stroke-miterlimit:2;"><g><path d="M16.8,18.18c-2.16,-0 -4.07,0.1 -5.73,0.3c-1.66,0.2 -3.12,0.62 -4.38,1.26c-1.26,0.64 -2.39,1.57 -3.39,2.79c-1,1.22 -1.92,2.85 -2.76,4.89c-0.08,0.16 -0.17,0.21 -0.27,0.15c-0.1,-0.06 -0.19,-0.21 -0.27,-0.45c0.36,-1.08 0.78,-2.13 1.26,-3.15c0.48,-1.02 1.03,-1.96 1.65,-2.82c0.62,-0.86 1.31,-1.59 2.07,-2.19c0.76,-0.6 1.6,-0.98 2.52,-1.14c1,-0.2 2.12,-0.29 3.36,-0.27c1.24,0.02 2.48,0.03 3.72,0.03c1.16,-0 2.32,0.01 3.48,0.03c1.16,0.02 2.32,0.03 3.48,0.03l2.58,-0c3.2,-0.04 5.76,-0.58 7.68,-1.62c0.6,-0.32 1.2,-0.8 1.8,-1.44c0.6,-0.64 0.9,-1.34 0.9,-2.1c0,-0.2 -0.02,-0.34 -0.06,-0.42c-0.04,-0.04 -0.06,-0.1 -0.06,-0.18c0,-0.16 0.06,-0.24 0.18,-0.24c0.04,-0 0.1,0.04 0.18,0.12c0.48,0.52 0.84,1.04 1.08,1.56c0.12,0.16 0.18,0.4 0.18,0.72c0,0.24 -0.08,0.52 -0.24,0.84c-0.68,1.12 -1.69,1.92 -3.03,2.4c-1.34,0.48 -2.97,0.76 -4.89,0.84c-0.68,0.04 -1.4,0.05 -2.16,0.03c-0.76,-0.02 -1.44,-0.01 -2.04,0.03c-0.56,-0 -0.98,0.2 -1.26,0.6c-2.24,3.4 -4.31,6.72 -6.21,9.96c-1.9,3.24 -3.63,6.28 -5.19,9.12c-0.36,0.68 -0.65,1.31 -0.87,1.89c-0.22,0.58 -0.35,1.11 -0.39,1.59c0,0.32 0.04,0.63 0.12,0.93c0.08,0.3 0.26,0.56 0.54,0.78c0.28,0.22 0.69,0.4 1.23,0.54c0.54,0.14 1.25,0.21 2.13,0.21l0.72,-0c0.28,-0 0.52,-0.02 0.72,-0.06c0.12,0.16 0.06,0.32 -0.18,0.48c-0.68,0.08 -1.44,0.13 -2.28,0.15c-0.84,0.02 -1.62,0.03 -2.34,0.03c-0.6,-0 -1.17,-0.01 -1.71,-0.03c-0.54,-0.02 -1.02,-0.1 -1.44,-0.24c-0.42,-0.14 -0.76,-0.35 -1.02,-0.63c-0.26,-0.28 -0.39,-0.68 -0.39,-1.2c0,-0.32 0.08,-0.68 0.24,-1.08c0.16,-0.4 0.38,-0.82 0.66,-1.26c1.08,-1.76 2.17,-3.56 3.27,-5.4c1.1,-1.84 2.18,-3.67 3.24,-5.49c1.06,-1.82 2.09,-3.6 3.09,-5.34c1,-1.74 1.92,-3.41 2.76,-5.01c0.2,-0.36 0.1,-0.54 -0.3,-0.54l-1.98,-0Z" style="fill-rule:nonzero;stroke:#000;stroke-width:2px;"/><path d="M60.84,4.5c0,0.64 -0.03,1.12 -0.09,1.44c-0.06,0.32 -0.12,0.54 -0.18,0.66c-0.06,0.12 -0.12,0.15 -0.18,0.09c-0.06,-0.06 -0.09,-0.13 -0.09,-0.21c0,-0.28 -0.07,-0.66 -0.21,-1.14c-0.14,-0.48 -0.42,-0.95 -0.84,-1.41c-0.42,-0.46 -1.01,-0.86 -1.77,-1.2c-0.76,-0.34 -1.74,-0.51 -2.94,-0.51c-1.04,-0 -2.11,0.15 -3.21,0.45c-1.1,0.3 -2.29,0.88 -3.57,1.74c-1.28,0.86 -2.65,2.05 -4.11,3.57c-1.46,1.52 -3.05,3.49 -4.77,5.91c-1.72,2.42 -3.59,5.36 -5.61,8.82c-2.02,3.46 -4.23,7.55 -6.63,12.27c0.28,-0.24 0.72,-0.6 1.32,-1.08c0.6,-0.48 1.26,-0.96 1.98,-1.44c0.72,-0.48 1.42,-0.9 2.1,-1.26c0.68,-0.36 1.26,-0.54 1.74,-0.54c0.36,-0 0.54,0.14 0.54,0.42c0,0.24 -0.18,0.6 -0.54,1.08c-0.32,0.48 -0.74,1.14 -1.26,1.98c-0.52,0.84 -1.03,1.74 -1.53,2.7c-0.5,0.96 -0.93,1.9 -1.29,2.82c-0.36,0.92 -0.54,1.66 -0.54,2.22c0,0.64 0.16,1.12 0.48,1.44c0.32,0.32 0.76,0.48 1.32,0.48c0.92,-0 2.22,-0.6 3.9,-1.8c1.68,-1.2 3.6,-3.24 5.76,-6.12c0.08,-0.08 0.16,-0.12 0.24,-0.12c0.08,-0 0.12,0.08 0.12,0.24c-0.76,1.08 -1.65,2.16 -2.67,3.24c-1.02,1.08 -2.06,2.06 -3.12,2.94c-1.06,0.88 -2.12,1.59 -3.18,2.13c-1.06,0.54 -2.03,0.81 -2.91,0.81c-0.68,-0 -1.22,-0.19 -1.62,-0.57c-0.4,-0.38 -0.6,-0.91 -0.6,-1.59c0,-0.64 0.22,-1.46 0.66,-2.46c0.44,-1 0.93,-2.01 1.47,-3.03c0.54,-1.02 1.03,-1.96 1.47,-2.82c0.44,-0.86 0.66,-1.47 0.66,-1.83c0,-0.2 -0.06,-0.3 -0.18,-0.3c-0.36,-0 -1.01,0.34 -1.95,1.02c-0.94,0.68 -2.11,1.96 -3.51,3.84c-0.56,1 -1.14,2.04 -1.74,3.12c-0.6,1.08 -1.12,2.04 -1.56,2.88c-0.32,0.64 -0.62,0.96 -0.9,0.96c-0.2,-0 -0.46,-0.05 -0.78,-0.15c-0.32,-0.1 -0.48,-0.29 -0.48,-0.57c0,-0.2 0.06,-0.42 0.18,-0.66c1.68,-3.04 3.32,-5.91 4.92,-8.61c1.6,-2.7 3.22,-5.35 4.86,-7.95c1.92,-3 3.91,-6.06 5.97,-9.18c2.06,-3.12 4.17,-5.96 6.33,-8.52c2.16,-2.56 4.35,-4.65 6.57,-6.27c2.22,-1.62 4.45,-2.43 6.69,-2.43c0.56,-0 1.14,0.07 1.74,0.21c0.6,0.14 1.17,0.37 1.71,0.69c0.54,0.32 0.98,0.77 1.32,1.35c0.34,0.58 0.51,1.33 0.51,2.25Z" style="fill-rule:nonzero;stroke:#000;stroke-width:2px;"/><path d="M52.8,36.9c-0.68,0.84 -1.49,1.71 -2.43,2.61c-0.94,0.9 -1.96,1.72 -3.06,2.46c-1.1,0.74 -2.24,1.34 -3.42,1.8c-1.18,0.46 -2.35,0.69 -3.51,0.69c-1.88,0 -2.82,-0.84 -2.82,-2.52c0,-1.12 0.29,-2.33 0.87,-3.63c0.58,-1.3 1.33,-2.5 2.25,-3.6c0.92,-1.1 1.93,-2.02 3.03,-2.76c1.1,-0.74 2.15,-1.11 3.15,-1.11c0.56,0 0.95,0.1 1.17,0.3c0.22,0.2 0.33,0.46 0.33,0.78c0,0.48 -0.15,1 -0.45,1.56c-0.3,0.56 -0.75,1.09 -1.35,1.59c-0.6,0.5 -1.36,0.92 -2.28,1.26c-0.92,0.34 -2.02,0.51 -3.3,0.51c-0.2,0.36 -0.42,0.93 -0.66,1.71c-0.24,0.78 -0.36,1.57 -0.36,2.37c0,1.64 0.74,2.46 2.22,2.46c0.92,0 1.87,-0.22 2.85,-0.66c0.98,-0.44 1.93,-0.99 2.85,-1.65c0.92,-0.66 1.77,-1.38 2.55,-2.16c0.78,-0.78 1.43,-1.51 1.95,-2.19c0.08,-0.08 0.17,-0.1 0.27,-0.06c0.1,0.04 0.15,0.12 0.15,0.24Zm-6.3,-4.68c-0,-0.52 -0.26,-0.78 -0.78,-0.78c-0.4,0 -0.81,0.15 -1.23,0.45c-0.42,0.3 -0.83,0.69 -1.23,1.17c-0.4,0.48 -0.78,1 -1.14,1.56c-0.36,0.56 -0.66,1.1 -0.9,1.62c0.08,0.04 0.22,0.07 0.42,0.09c0.2,0.02 0.36,0.03 0.48,0.03c1.16,0 2.18,-0.41 3.06,-1.23c0.88,-0.82 1.32,-1.79 1.32,-2.91Z" style="fill-rule:nonzero;stroke:#000;stroke-width:2px;"/><path d="M72.6,19.68c-0.16,0.4 -0.35,0.92 -0.57,1.56c-0.22,0.64 -0.39,1.18 -0.51,1.62c-0.16,0.08 -0.3,0.02 -0.42,-0.18c0.12,-0.24 0.18,-0.54 0.18,-0.9c-0,-0.72 -0.35,-1.4 -1.05,-2.04c-0.7,-0.64 -1.81,-0.96 -3.33,-0.96c-1.6,0 -2.9,0.47 -3.9,1.41c-1,0.94 -1.5,2.19 -1.5,3.75c-0,1.2 0.28,2.32 0.84,3.36c0.56,1.04 1.18,2 1.86,2.88c0.52,0.68 0.95,1.25 1.29,1.71c0.34,0.46 0.61,0.88 0.81,1.26c0.2,0.38 0.34,0.74 0.42,1.08c0.08,0.34 0.12,0.75 0.12,1.23c-0,0.84 -0.19,1.66 -0.57,2.46c-0.38,0.8 -0.88,1.54 -1.5,2.22c-0.62,0.68 -1.3,1.29 -2.04,1.83c-0.74,0.54 -1.47,0.97 -2.19,1.29c-1.8,0.8 -3.8,1.2 -6,1.2c-0.92,0 -1.83,-0.08 -2.73,-0.24c-0.9,-0.16 -1.73,-0.42 -2.49,-0.78c-0.2,-0.12 -0.38,-0.23 -0.54,-0.33c-0.16,-0.1 -0.26,-0.21 -0.3,-0.33c0.16,-0.68 0.35,-1.45 0.57,-2.31c0.22,-0.86 0.41,-1.57 0.57,-2.13c-0,-0.08 0.06,-0.12 0.18,-0.12c0.12,0 0.18,0.1 0.18,0.3c-0.12,0.36 -0.18,0.72 -0.18,1.08c-0,1.12 0.46,2.11 1.38,2.97c0.92,0.86 2.34,1.29 4.26,1.29c0.72,0 1.45,-0.07 2.19,-0.21c0.74,-0.14 1.41,-0.35 2.01,-0.63c1.24,-0.56 2.29,-1.35 3.15,-2.37c0.86,-1.02 1.29,-2.23 1.29,-3.63c-0,-0.68 -0.16,-1.37 -0.48,-2.07c-0.32,-0.7 -0.94,-1.63 -1.86,-2.79c-0.8,-1.04 -1.41,-1.96 -1.83,-2.76c-0.42,-0.8 -0.63,-1.72 -0.63,-2.76c-0,-1.04 0.23,-2.08 0.69,-3.12c0.46,-1.04 1.03,-1.96 1.71,-2.76c0.24,-0.28 0.57,-0.61 0.99,-0.99c0.42,-0.38 0.92,-0.73 1.5,-1.05c0.58,-0.32 1.26,-0.6 2.04,-0.84c0.78,-0.24 1.65,-0.36 2.61,-0.36c0.64,0 1.26,0.09 1.86,0.27c0.6,0.18 1.14,0.53 1.62,1.05c0.2,0.28 0.3,0.56 0.3,0.84Z" style="fill-rule:nonzero;stroke:#000;stroke-width:2px;"/><path d="M83.7,22.14c-0.32,0.08 -0.68,0.23 -1.08,0.45c-0.4,0.22 -0.7,0.49 -0.9,0.81c-0.92,1.28 -1.81,2.62 -2.67,4.02c-0.86,1.4 -1.69,2.8 -2.49,4.2l7.44,0c0.12,0.08 0.18,0.16 0.18,0.24c0,0.08 -0.04,0.14 -0.12,0.18c-0.32,0 -0.8,0.01 -1.44,0.03c-0.64,0.02 -1.34,0.05 -2.1,0.09c-0.76,0.04 -1.54,0.08 -2.34,0.12c-0.8,0.04 -1.5,0.08 -2.1,0.12c-1.12,2 -1.98,3.7 -2.58,5.1c-0.6,1.4 -0.9,2.62 -0.9,3.66c-0,1.44 0.66,2.16 1.98,2.16c0.64,0 1.37,-0.17 2.19,-0.51c0.82,-0.34 1.69,-0.79 2.61,-1.35c0.12,-0.12 0.24,-0.11 0.36,0.03c0.12,0.14 0.08,0.25 -0.12,0.33c-1.36,0.88 -2.62,1.52 -3.78,1.92c-1.16,0.4 -2.34,0.6 -3.54,0.6c-0.64,0 -1.2,-0.19 -1.68,-0.57c-0.48,-0.38 -0.72,-1.03 -0.72,-1.95c0,-0.8 0.36,-1.98 1.08,-3.54c0.72,-1.56 1.78,-3.48 3.18,-5.76c-0.48,0.04 -1.07,0.09 -1.77,0.15c-0.7,0.06 -1.11,0.09 -1.23,0.09c-0.2,0 -0.3,-0.08 -0.3,-0.24c0.16,-0.28 0.42,-0.56 0.78,-0.84l3.06,-0.06c0.36,-0.6 0.76,-1.27 1.2,-2.01c0.44,-0.74 0.88,-1.48 1.32,-2.22c0.44,-0.74 0.89,-1.46 1.35,-2.16c0.46,-0.7 0.87,-1.35 1.23,-1.95c0.44,-0.2 1.05,-0.46 1.83,-0.78c0.78,-0.32 1.47,-0.58 2.07,-0.78c0.08,0 0.14,0.05 0.18,0.15c0.04,0.1 -0.02,0.19 -0.18,0.27Z" style="fill-rule:nonzero;stroke:#000;stroke-width:2px;"/><path d="M102.24,35.82c-0.92,1.12 -1.93,2.25 -3.03,3.39c-1.1,1.14 -2.21,2.17 -3.33,3.09c-1.12,0.92 -2.23,1.66 -3.33,2.22c-1.1,0.56 -2.11,0.84 -3.03,0.84c-0.8,0 -1.36,-0.2 -1.68,-0.6c-0.32,-0.4 -0.48,-0.9 -0.48,-1.5c0,-0.56 0.17,-1.31 0.51,-2.25c0.34,-0.94 0.85,-1.95 1.53,-3.03c-0.52,0.68 -1.12,1.4 -1.8,2.16c-0.68,0.76 -1.38,1.45 -2.1,2.07c-0.72,0.62 -1.44,1.14 -2.16,1.56c-0.72,0.42 -1.36,0.63 -1.92,0.63c-0.84,-0 -1.26,-0.42 -1.26,-1.26c-0,-0.92 0.36,-2.08 1.08,-3.48c0.72,-1.4 1.69,-2.75 2.91,-4.05c1.22,-1.3 2.61,-2.42 4.17,-3.36c1.56,-0.94 3.18,-1.41 4.86,-1.41c0.2,-0.4 0.38,-0.68 0.54,-0.84c0.16,-0.16 0.32,-0.28 0.48,-0.36l1.68,-0.48l0.12,0.06c-0.2,0.2 -0.39,0.45 -0.57,0.75c-0.18,0.3 -0.37,0.61 -0.57,0.93c0.2,-0 0.5,0.02 0.9,0.06c0.4,0.04 0.7,0.08 0.9,0.12c0.2,0.08 0.3,0.18 0.3,0.3c-0,0.12 -0.06,0.18 -0.18,0.18c-0.24,-0.08 -0.6,-0.14 -1.08,-0.18c-0.48,-0.04 -0.84,-0.06 -1.08,-0.06c-1.84,3.24 -3.19,5.81 -4.05,7.71c-0.86,1.9 -1.29,3.31 -1.29,4.23c-0,0.36 0.09,0.66 0.27,0.9c0.18,0.24 0.55,0.36 1.11,0.36c0.64,-0 1.4,-0.23 2.28,-0.69c0.88,-0.46 1.82,-1.1 2.82,-1.92c1,-0.82 2.03,-1.77 3.09,-2.85c1.06,-1.08 2.07,-2.22 3.03,-3.42c0.08,-0.12 0.16,-0.15 0.24,-0.09c0.08,0.06 0.12,0.15 0.12,0.27Zm-9.36,-4.56c-1.36,-0 -2.66,0.48 -3.9,1.44c-1.24,0.96 -2.34,2.09 -3.3,3.39c-0.96,1.3 -1.73,2.59 -2.31,3.87c-0.58,1.28 -0.87,2.22 -0.87,2.82c-0,0.32 0.12,0.48 0.36,0.48c0.24,-0 0.61,-0.16 1.11,-0.48c0.5,-0.32 1.07,-0.75 1.71,-1.29c0.64,-0.54 1.29,-1.17 1.95,-1.89c0.66,-0.72 1.27,-1.5 1.83,-2.34c0.64,-0.96 1.26,-1.98 1.86,-3.06c0.6,-1.08 1.14,-2.04 1.62,-2.88l-0.06,-0.06Z" style="fill-rule:nonzero;stroke:#000;stroke-width:2px;"/><path d="M112.68,22.14c-0.32,0.08 -0.68,0.23 -1.08,0.45c-0.4,0.22 -0.7,0.49 -0.9,0.81c-0.92,1.28 -1.81,2.62 -2.67,4.02c-0.86,1.4 -1.69,2.8 -2.49,4.2l7.44,0c0.12,0.08 0.18,0.16 0.18,0.24c-0,0.08 -0.04,0.14 -0.12,0.18c-0.32,0 -0.8,0.01 -1.44,0.03c-0.64,0.02 -1.34,0.05 -2.1,0.09c-0.76,0.04 -1.54,0.08 -2.34,0.12c-0.8,0.04 -1.5,0.08 -2.1,0.12c-1.12,2 -1.98,3.7 -2.58,5.1c-0.6,1.4 -0.9,2.62 -0.9,3.66c-0,1.44 0.66,2.16 1.98,2.16c0.64,0 1.37,-0.17 2.19,-0.51c0.82,-0.34 1.69,-0.79 2.61,-1.35c0.12,-0.12 0.24,-0.11 0.36,0.03c0.12,0.14 0.08,0.25 -0.12,0.33c-1.36,0.88 -2.62,1.52 -3.78,1.92c-1.16,0.4 -2.34,0.6 -3.54,0.6c-0.64,0 -1.2,-0.19 -1.68,-0.57c-0.48,-0.38 -0.72,-1.03 -0.72,-1.95c0,-0.8 0.36,-1.98 1.08,-3.54c0.72,-1.56 1.78,-3.48 3.18,-5.76c-0.48,0.04 -1.07,0.09 -1.77,0.15c-0.7,0.06 -1.11,0.09 -1.23,0.09c-0.2,0 -0.3,-0.08 -0.3,-0.24c0.16,-0.28 0.42,-0.56 0.78,-0.84l3.06,-0.06c0.36,-0.6 0.76,-1.27 1.2,-2.01c0.44,-0.74 0.88,-1.48 1.32,-2.22c0.44,-0.74 0.89,-1.46 1.35,-2.16c0.46,-0.7 0.87,-1.35 1.23,-1.95c0.44,-0.2 1.05,-0.46 1.83,-0.78c0.78,-0.32 1.47,-0.58 2.07,-0.78c0.08,0 0.14,0.05 0.18,0.15c0.04,0.1 -0.02,0.19 -0.18,0.27Z" style="fill-rule:nonzero;stroke:#000;stroke-width:2px;"/><path d="M128.94,36.84c-0.68,0.96 -1.48,1.97 -2.4,3.03c-0.92,1.06 -1.88,2.03 -2.88,2.91c-1,0.88 -2.02,1.61 -3.06,2.19c-1.04,0.58 -2.02,0.87 -2.94,0.87c-0.68,0 -1.21,-0.18 -1.59,-0.54c-0.38,-0.36 -0.57,-0.92 -0.57,-1.68c-0,-0.36 0.05,-0.77 0.15,-1.23c0.1,-0.46 0.27,-0.97 0.51,-1.53c-0.24,0.28 -0.51,0.61 -0.81,0.99c-0.3,0.38 -0.64,0.74 -1.02,1.08c-0.38,0.34 -0.8,0.62 -1.26,0.84c-0.46,0.22 -0.97,0.33 -1.53,0.33c-0.44,0 -0.8,-0.13 -1.08,-0.39c-0.28,-0.26 -0.42,-0.67 -0.42,-1.23c-0,-0.32 0.07,-0.72 0.21,-1.2c0.14,-0.48 0.4,-1.13 0.78,-1.95c0.38,-0.82 0.9,-1.84 1.56,-3.06c0.66,-1.22 1.51,-2.73 2.55,-4.53c0.2,-0.4 0.38,-0.6 0.54,-0.6c0.28,0 0.57,0.17 0.87,0.51c0.3,0.34 0.45,0.57 0.45,0.69c-0,0.12 -0.12,0.36 -0.36,0.72c-0.64,0.96 -1.24,1.92 -1.8,2.88c-0.56,0.96 -1.05,1.86 -1.47,2.7c-0.42,0.84 -0.76,1.59 -1.02,2.25c-0.26,0.66 -0.39,1.17 -0.39,1.53c-0,0.6 0.22,0.9 0.66,0.9c0.4,0 0.95,-0.31 1.65,-0.93c0.7,-0.62 1.53,-1.67 2.49,-3.15c0.36,-0.64 0.73,-1.31 1.11,-2.01c0.38,-0.7 0.75,-1.37 1.11,-2.01c0.36,-0.64 0.7,-1.23 1.02,-1.77c0.32,-0.54 0.56,-0.95 0.72,-1.23c0.2,-0.28 0.36,-0.42 0.48,-0.42c0.16,-0 0.34,0.17 0.54,0.51c0.2,0.34 0.3,0.75 0.3,1.23c-0,0.32 -0.08,0.62 -0.24,0.9c-0.48,0.72 -0.99,1.43 -1.53,2.13c-0.54,0.7 -1.04,1.43 -1.5,2.19c-0.46,0.76 -0.85,1.56 -1.17,2.4c-0.32,0.84 -0.48,1.76 -0.48,2.76c-0,0.88 0.42,1.32 1.26,1.32c0.56,0 1.23,-0.21 2.01,-0.63c0.78,-0.42 1.63,-1.01 2.55,-1.77c0.92,-0.76 1.87,-1.68 2.85,-2.76c0.98,-1.08 1.91,-2.26 2.79,-3.54c0.24,-0.08 0.36,0.02 0.36,0.3Z" style="fill-rule:nonzero;stroke:#000;stroke-width:2px;"/><path d="M134.64,33.06c-0.12,0.2 -0.22,0.22 -0.3,0.06c-0.24,-0.52 -0.74,-0.78 -1.5,-0.78c-0.56,0 -1.12,0.16 -1.68,0.48c-0.56,0.32 -0.84,0.8 -0.84,1.44c-0,0.32 0.1,0.64 0.3,0.96c0.2,0.32 0.48,0.74 0.84,1.26c0.32,0.48 0.62,0.96 0.9,1.44c0.28,0.48 0.42,0.98 0.42,1.5c-0,1.04 -0.24,1.89 -0.72,2.55c-0.48,0.66 -1.05,1.19 -1.71,1.59c-0.66,0.4 -1.33,0.67 -2.01,0.81c-0.68,0.14 -1.22,0.21 -1.62,0.21c-2.44,0 -3.78,-0.82 -4.02,-2.46c0.2,-0.12 0.43,-0.27 0.69,-0.45c0.26,-0.18 0.45,-0.35 0.57,-0.51c0.08,0 0.14,0.08 0.18,0.24c0.2,0.72 0.58,1.34 1.14,1.86c0.56,0.52 1.22,0.78 1.98,0.78c0.32,0 0.7,-0.03 1.14,-0.09c0.44,-0.06 0.85,-0.2 1.23,-0.42c0.38,-0.22 0.71,-0.53 0.99,-0.93c0.28,-0.4 0.42,-0.94 0.42,-1.62c-0,-0.52 -0.1,-1 -0.3,-1.44c-0.2,-0.44 -0.42,-0.84 -0.66,-1.2c-0.24,-0.4 -0.48,-0.8 -0.72,-1.2c-0.24,-0.4 -0.36,-0.84 -0.36,-1.32c0,-0.48 0.17,-1 0.51,-1.56c0.34,-0.56 0.77,-1.07 1.29,-1.53c0.52,-0.46 1.09,-0.85 1.71,-1.17c0.62,-0.32 1.23,-0.48 1.83,-0.48c0.64,0 0.96,0.2 0.96,0.6c-0.12,0.2 -0.24,0.43 -0.36,0.69c-0.12,0.26 -0.22,0.49 -0.3,0.69Z" style="fill-rule:nonzero;stroke:#000;stroke-width:2px;"/><path d="M197.82,14.64c0.2,0.2 0.16,0.34 -0.12,0.42c-0.12,-0.04 -0.26,-0.06 -0.42,-0.06l-0.36,0c-0.4,0 -0.99,0.12 -1.77,0.36c-0.78,0.24 -1.87,0.84 -3.27,1.8c-1.4,0.96 -3.17,2.43 -5.31,4.41c-2.14,1.98 -4.77,4.71 -7.89,8.19c-0.8,0.88 -1.73,1.96 -2.79,3.24c-1.06,1.28 -2.12,2.57 -3.18,3.87c-1.06,1.3 -2.03,2.54 -2.91,3.72c-0.88,1.18 -1.54,2.15 -1.98,2.91c-0.08,0.16 -0.2,0.31 -0.36,0.45c-0.16,0.14 -0.34,0.23 -0.54,0.27c-0.52,0.08 -1.03,0.21 -1.53,0.39c-0.5,0.18 -0.91,0.43 -1.23,0.75c-0.36,-0 -0.4,-0.2 -0.12,-0.6c0.12,-0.12 0.23,-0.58 0.33,-1.38c0.1,-0.8 0.19,-1.79 0.27,-2.97c0.08,-1.18 0.15,-2.5 0.21,-3.96c0.06,-1.46 0.1,-2.93 0.12,-4.41c0.02,-1.48 0.04,-2.9 0.06,-4.26c0.02,-1.36 0.03,-2.54 0.03,-3.54c-0,-0.56 -0.14,-0.84 -0.42,-0.84c-0.12,-0 -0.32,0.1 -0.6,0.3c-0.32,0.28 -0.89,0.8 -1.71,1.56c-0.82,0.76 -1.8,1.68 -2.94,2.76c-1.14,1.08 -2.41,2.28 -3.81,3.6c-1.4,1.32 -2.81,2.68 -4.23,4.08c-1.42,1.4 -2.8,2.8 -4.14,4.2c-1.34,1.4 -2.57,2.72 -3.69,3.96c-0.12,0.12 -0.24,0.24 -0.36,0.36c-0.12,0.12 -0.24,0.18 -0.36,0.18c-0.6,-0 -1.13,0.07 -1.59,0.21c-0.46,0.14 -0.89,0.31 -1.29,0.51c-0.28,-0 -0.34,-0.18 -0.18,-0.54c0.32,-0.48 0.65,-1.11 0.99,-1.89c0.34,-0.78 0.73,-1.69 1.17,-2.73c0.2,-0.48 0.5,-1.27 0.9,-2.37c0.4,-1.1 0.84,-2.34 1.32,-3.72c0.48,-1.38 0.97,-2.82 1.47,-4.32c0.5,-1.5 0.96,-2.91 1.38,-4.23c0.42,-1.32 0.77,-2.45 1.05,-3.39c0.28,-0.94 0.42,-1.55 0.42,-1.83c0,-0.56 -0.3,-0.84 -0.9,-0.84c-0.56,-0 -1.13,0.08 -1.71,0.24c-0.58,0.16 -1.05,0.24 -1.41,0.24c-0.2,-0 -0.31,-0.08 -0.33,-0.24c-0.02,-0.16 0.09,-0.26 0.33,-0.3c1.92,-0.36 3.4,-0.65 4.44,-0.87c1.04,-0.22 1.81,-0.39 2.31,-0.51c0.5,-0.12 0.82,-0.21 0.96,-0.27c0.14,-0.06 0.25,-0.09 0.33,-0.09c0.2,-0 0.3,0.08 0.3,0.24c-0,0.16 -0.06,0.28 -0.18,0.36c-0.12,0.12 -0.26,0.33 -0.42,0.63c-0.16,0.3 -0.33,0.66 -0.51,1.08c-0.18,0.42 -0.37,0.87 -0.57,1.35c-0.2,0.48 -0.38,0.94 -0.54,1.38c-1.04,2.76 -2.05,5.7 -3.03,8.82c-0.98,3.12 -1.89,6.16 -2.73,9.12c-0.12,0.44 -0.13,0.67 -0.03,0.69c0.1,0.02 0.21,-0.03 0.33,-0.15c1.72,-1.6 3.59,-3.38 5.61,-5.34c2.02,-1.96 4.08,-3.95 6.18,-5.97c2.1,-2.02 4.15,-3.98 6.15,-5.88c2,-1.9 3.84,-3.61 5.52,-5.13c0.12,-0.04 0.23,-0 0.33,0.12c0.1,0.12 0.11,0.22 0.03,0.3c-0.2,0.08 -0.38,0.24 -0.54,0.48c-0.16,0.24 -0.26,0.5 -0.3,0.78c-0.08,0.68 -0.16,1.54 -0.24,2.58c-0.08,1.04 -0.15,2.16 -0.21,3.36c-0.06,1.2 -0.1,2.43 -0.12,3.69c-0.02,1.26 -0.03,2.49 -0.03,3.69c-0,1.84 0.02,3.38 0.06,4.62c0.04,1.24 0.06,2.24 0.06,3c-0,0.28 0.04,0.42 0.12,0.42c0.12,-0 0.24,-0.08 0.36,-0.24c0.72,-0.88 1.51,-1.83 2.37,-2.85c0.86,-1.02 1.74,-2.07 2.64,-3.15c0.9,-1.08 1.8,-2.14 2.7,-3.18c0.9,-1.04 1.73,-2 2.49,-2.88c0.92,-1.04 1.92,-2.14 3,-3.3c1.08,-1.16 2.17,-2.3 3.27,-3.42c1.1,-1.12 2.17,-2.2 3.21,-3.24c1.04,-1.04 1.98,-1.94 2.82,-2.7c0.76,-0.68 1.55,-1.32 2.37,-1.92c0.82,-0.6 1.75,-0.9 2.79,-0.9c0.08,-0 0.23,0.03 0.45,0.09c0.22,0.06 0.44,0.13 0.66,0.21c0.22,0.08 0.43,0.16 0.63,0.24c0.2,0.08 0.32,0.14 0.36,0.18Z" style="fill-rule:nonzero;stroke:#000;stroke-width:2px;"/><path d="M193.2,22.8c-0,0.48 -0.21,0.96 -0.63,1.44c-0.42,0.48 -0.89,0.72 -1.41,0.72c-0.48,-0 -0.72,-0.24 -0.72,-0.72c-0,-0.52 0.19,-1.02 0.57,-1.5c0.38,-0.48 0.85,-0.72 1.41,-0.72c0.52,-0 0.78,0.26 0.78,0.78Zm2.7,13.38c-0.96,1.24 -2.06,2.42 -3.3,3.54c-1.24,1.12 -2.38,2.02 -3.42,2.7c-0.8,0.52 -1.62,0.92 -2.46,1.2c-0.84,0.28 -1.6,0.42 -2.28,0.42c-0.24,-0 -0.52,-0.02 -0.84,-0.06c-0.32,-0.04 -0.61,-0.14 -0.87,-0.3c-0.26,-0.16 -0.48,-0.37 -0.66,-0.63c-0.18,-0.26 -0.27,-0.61 -0.27,-1.05c0,-0.52 0.2,-1.23 0.6,-2.13c0.4,-0.9 0.87,-1.83 1.41,-2.79c0.54,-0.96 1.08,-1.88 1.62,-2.76c0.54,-0.88 0.97,-1.54 1.29,-1.98c0.2,-0.32 0.55,-0.59 1.05,-0.81c0.5,-0.22 0.83,-0.33 0.99,-0.33c0.2,-0 0.3,0.06 0.3,0.18c0,0.08 -0.03,0.2 -0.09,0.36c-0.06,0.16 -0.13,0.28 -0.21,0.36c-0.52,0.8 -1.05,1.68 -1.59,2.64c-0.54,0.96 -1.03,1.89 -1.47,2.79c-0.44,0.9 -0.79,1.73 -1.05,2.49c-0.26,0.76 -0.39,1.36 -0.39,1.8c0,0.48 0.13,0.83 0.39,1.05c0.26,0.22 0.61,0.33 1.05,0.33c0.8,-0 1.68,-0.27 2.64,-0.81c0.96,-0.54 1.91,-1.19 2.85,-1.95c0.94,-0.76 1.81,-1.56 2.61,-2.4c0.8,-0.84 1.42,-1.56 1.86,-2.16c0.2,-0.2 0.31,-0.25 0.33,-0.15c0.02,0.1 -0.01,0.25 -0.09,0.45Z" style="fill-rule:nonzero;stroke:#000;stroke-width:2px;"/><path d="M225.66,8.28c0,0.44 -0.11,0.88 -0.33,1.32c-0.22,0.44 -0.37,0.94 -0.45,1.5c0,0.2 -0.07,0.31 -0.21,0.33c-0.14,0.02 -0.21,-0.07 -0.21,-0.27c0,-0.12 0.02,-0.23 0.06,-0.33c0.04,-0.1 0.06,-0.21 0.06,-0.33c0,-0.48 -0.12,-0.9 -0.36,-1.26c-0.24,-0.36 -0.55,-0.65 -0.93,-0.87c-0.38,-0.22 -0.79,-0.38 -1.23,-0.48c-0.44,-0.1 -0.86,-0.15 -1.26,-0.15c-0.92,0 -2.07,0.24 -3.45,0.72c-1.38,0.48 -2.87,1.54 -4.47,3.18c-1.48,1.52 -2.93,3.27 -4.35,5.25c-1.42,1.98 -2.77,4.01 -4.05,6.09c-0.8,1.32 -1.7,2.83 -2.7,4.53c-1,1.7 -1.96,3.36 -2.88,4.98c-0.92,1.62 -1.74,3.06 -2.46,4.32c-0.72,1.26 -1.18,2.11 -1.38,2.55c-0.16,0.32 -0.22,0.48 -0.18,0.48c0.08,0 0.24,-0.12 0.48,-0.36c0.68,-0.68 1.38,-1.34 2.1,-1.98c0.72,-0.64 1.5,-1.34 2.34,-2.1c-0.04,-0.16 -0.06,-0.42 -0.06,-0.78c0,-0.32 0.25,-0.63 0.75,-0.93c0.5,-0.3 0.89,-0.49 1.17,-0.57c0.08,0 0.12,0.08 0.12,0.24c0,0.12 0.02,0.22 0.06,0.3c0.2,-0.16 0.66,-0.55 1.38,-1.17c0.72,-0.62 1.5,-1.26 2.34,-1.92c0.84,-0.66 1.61,-1.26 2.31,-1.8c0.7,-0.54 1.13,-0.81 1.29,-0.81c0.12,0 0.23,0.05 0.33,0.15c0.1,0.1 0.21,0.31 0.33,0.63c0,0.24 -0.2,0.42 -0.6,0.54c-0.48,0.16 -1.06,0.44 -1.74,0.84c-0.68,0.4 -1.37,0.86 -2.07,1.38c-0.7,0.52 -1.38,1.04 -2.04,1.56c-0.66,0.52 -1.19,0.96 -1.59,1.32c0.04,0.52 0.12,1.1 0.24,1.74c0.12,0.64 0.26,1.28 0.42,1.92c0.16,0.64 0.35,1.27 0.57,1.89c0.22,0.62 0.45,1.17 0.69,1.65c0.2,0.44 0.49,0.76 0.87,0.96c0.38,0.2 0.77,0.3 1.17,0.3c0.6,0 1.27,-0.24 2.01,-0.72c0.74,-0.48 1.49,-1.09 2.25,-1.83c0.76,-0.74 1.49,-1.54 2.19,-2.4c0.7,-0.86 1.31,-1.67 1.83,-2.43c0.12,-0.2 0.25,-0.24 0.39,-0.12c0.14,0.12 0.15,0.24 0.03,0.36c-0.6,0.8 -1.24,1.6 -1.92,2.4c-0.68,0.8 -1.37,1.56 -2.07,2.28c-0.7,0.72 -1.39,1.36 -2.07,1.92c-0.68,0.56 -1.3,1 -1.86,1.32c-0.96,0.48 -1.78,0.72 -2.46,0.72c-0.52,0 -0.98,-0.12 -1.38,-0.36c-0.4,-0.24 -0.75,-0.67 -1.05,-1.29c-0.3,-0.62 -0.58,-1.47 -0.84,-2.55c-0.26,-1.08 -0.55,-2.46 -0.87,-4.14c-1.28,1.24 -2.56,2.52 -3.84,3.84c-1.28,1.32 -2.36,2.76 -3.24,4.32c-0.08,0.2 -0.24,0.3 -0.48,0.3c-0.28,0 -0.5,-0.17 -0.66,-0.51c-0.16,-0.34 -0.24,-0.65 -0.24,-0.93l0,-0.24c0,-0.08 0.02,-0.16 0.06,-0.24c0.4,-0.56 0.82,-1.25 1.26,-2.07c0.44,-0.82 0.99,-1.82 1.65,-3c0.66,-1.18 1.47,-2.59 2.43,-4.23c0.96,-1.64 2.14,-3.58 3.54,-5.82c0.64,-1.04 1.37,-2.17 2.19,-3.39c0.82,-1.22 1.68,-2.46 2.58,-3.72c0.9,-1.26 1.82,-2.5 2.76,-3.72c0.94,-1.22 1.85,-2.33 2.73,-3.33c0.64,-0.72 1.33,-1.45 2.07,-2.19c0.74,-0.74 1.51,-1.42 2.31,-2.04c0.8,-0.62 1.63,-1.17 2.49,-1.65c0.86,-0.48 1.73,-0.82 2.61,-1.02c0.4,-0.08 0.79,-0.16 1.17,-0.24c0.38,-0.08 0.75,-0.12 1.11,-0.12c0.32,0 0.67,0.05 1.05,0.15c0.38,0.1 0.73,0.24 1.05,0.42c0.32,0.18 0.59,0.41 0.81,0.69c0.22,0.28 0.33,0.62 0.33,1.02Z" style="fill-rule:nonzero;stroke:#000;stroke-width:2px;"/><path d="M222.06,22.8c0,0.48 -0.21,0.96 -0.63,1.44c-0.42,0.48 -0.89,0.72 -1.41,0.72c-0.48,-0 -0.72,-0.24 -0.72,-0.72c0,-0.52 0.19,-1.02 0.57,-1.5c0.38,-0.48 0.85,-0.72 1.41,-0.72c0.52,-0 0.78,0.26 0.78,0.78Zm2.7,13.38c-0.96,1.24 -2.06,2.42 -3.3,3.54c-1.24,1.12 -2.38,2.02 -3.42,2.7c-0.8,0.52 -1.62,0.92 -2.46,1.2c-0.84,0.28 -1.6,0.42 -2.28,0.42c-0.24,-0 -0.52,-0.02 -0.84,-0.06c-0.32,-0.04 -0.61,-0.14 -0.87,-0.3c-0.26,-0.16 -0.48,-0.37 -0.66,-0.63c-0.18,-0.26 -0.27,-0.61 -0.27,-1.05c0,-0.52 0.2,-1.23 0.6,-2.13c0.4,-0.9 0.87,-1.83 1.41,-2.79c0.54,-0.96 1.08,-1.88 1.62,-2.76c0.54,-0.88 0.97,-1.54 1.29,-1.98c0.2,-0.32 0.55,-0.59 1.05,-0.81c0.5,-0.22 0.83,-0.33 0.99,-0.33c0.2,-0 0.3,0.06 0.3,0.18c0,0.08 -0.03,0.2 -0.09,0.36c-0.06,0.16 -0.13,0.28 -0.21,0.36c-0.52,0.8 -1.05,1.68 -1.59,2.64c-0.54,0.96 -1.03,1.89 -1.47,2.79c-0.44,0.9 -0.79,1.73 -1.05,2.49c-0.26,0.76 -0.39,1.36 -0.39,1.8c0,0.48 0.13,0.83 0.39,1.05c0.26,0.22 0.61,0.33 1.05,0.33c0.8,-0 1.68,-0.27 2.64,-0.81c0.96,-0.54 1.91,-1.19 2.85,-1.95c0.94,-0.76 1.81,-1.56 2.61,-2.4c0.8,-0.84 1.42,-1.56 1.86,-2.16c0.2,-0.2 0.31,-0.25 0.33,-0.15c0.02,0.1 -0.01,0.25 -0.09,0.45Z" style="fill-rule:nonzero;stroke:#000;stroke-width:2px;"/></g></svg>